<?xml version="1.0" encoding="UTF-8"?>
<svg xmlns="http://www.w3.org/2000/svg" xmlns:xlink="http://www.w3.org/1999/xlink" width="41px" height="40px" viewBox="0 0 41 40" version="1.1">
<g id="surface1">
<path style=" stroke:none;fill-rule:nonzero;fill:rgb(19.607843%,42.745098%,90.196078%);fill-opacity:1;" d="M 37.414062 8.90625 C 37.179688 8.148438 36.617188 7.535156 35.910156 7.15625 L 21.613281 0.253906 C 21.238281 0.0664062 20.816406 0.015625 20.441406 0.015625 C 20.0625 0.015625 19.640625 0.015625 19.269531 0.113281 L 4.96875 7.0625 C 4.265625 7.394531 3.75 8.007812 3.558594 8.8125 L 0.046875 24.367188 C -0.09375 25.171875 0.09375 25.976562 0.5625 26.636719 L 10.457031 38.976562 C 11.019531 39.546875 11.816406 39.921875 12.613281 39.96875 L 28.363281 39.96875 C 29.207031 40.0625 30.007812 39.6875 30.519531 38.976562 L 40.414062 26.636719 C 40.882812 25.976562 41.070312 25.171875 40.976562 24.367188 Z M 37.414062 8.90625 "/>
<path style=" stroke:none;fill-rule:nonzero;fill:rgb(100%,100%,100%);fill-opacity:1;" d="M 35.230469 23.386719 C 35.183594 23.386719 35.136719 23.386719 35.136719 23.335938 C 35.136719 23.289062 35.042969 23.289062 34.949219 23.289062 C 34.765625 23.242188 34.578125 23.242188 34.386719 23.242188 C 34.292969 23.242188 34.199219 23.242188 34.105469 23.195312 L 34.058594 23.195312 C 33.542969 23.148438 32.980469 23.054688 32.464844 22.914062 C 32.324219 22.867188 32.183594 22.726562 32.136719 22.585938 C 32.183594 22.585938 32.136719 22.585938 32.136719 22.585938 L 31.765625 22.488281 C 31.949219 21.117188 31.859375 19.699219 31.578125 18.328125 C 31.25 16.953125 30.6875 15.632812 29.9375 14.453125 L 30.214844 14.167969 L 30.214844 14.121094 C 30.214844 13.980469 30.261719 13.792969 30.355469 13.699219 C 30.777344 13.320312 31.199219 13.035156 31.667969 12.753906 C 31.761719 12.707031 31.855469 12.660156 31.949219 12.609375 C 32.132812 12.515625 32.273438 12.421875 32.464844 12.328125 C 32.511719 12.28125 32.558594 12.28125 32.605469 12.234375 C 32.652344 12.1875 32.605469 12.1875 32.605469 12.140625 C 33.027344 11.808594 33.121094 11.242188 32.792969 10.816406 C 32.652344 10.628906 32.371094 10.488281 32.132812 10.488281 C 31.902344 10.488281 31.664062 10.582031 31.476562 10.722656 L 31.429688 10.769531 C 31.382812 10.816406 31.335938 10.863281 31.289062 10.863281 C 31.148438 11.007812 31.011719 11.148438 30.917969 11.289062 C 30.871094 11.382812 30.777344 11.429688 30.730469 11.476562 C 30.402344 11.855469 29.980469 12.234375 29.558594 12.515625 C 29.464844 12.5625 29.371094 12.609375 29.277344 12.609375 C 29.230469 12.609375 29.136719 12.609375 29.089844 12.5625 L 29.046875 12.5625 L 28.671875 12.800781 C 28.296875 12.421875 27.875 12.042969 27.5 11.664062 C 25.765625 10.292969 23.609375 9.445312 21.402344 9.207031 L 21.359375 8.828125 L 21.359375 8.875 C 21.21875 8.78125 21.171875 8.640625 21.125 8.5 C 21.125 7.976562 21.125 7.460938 21.21875 6.890625 L 21.21875 6.84375 C 21.21875 6.75 21.265625 6.65625 21.265625 6.5625 C 21.3125 6.375 21.3125 6.183594 21.359375 5.992188 L 21.359375 5.703125 C 21.402344 5.230469 21.03125 4.757812 20.558594 4.710938 C 20.28125 4.664062 19.996094 4.804688 19.761719 5.039062 C 19.574219 5.230469 19.480469 5.464844 19.480469 5.703125 L 19.480469 5.9375 C 19.480469 6.128906 19.527344 6.316406 19.574219 6.507812 C 19.621094 6.601562 19.621094 6.695312 19.621094 6.789062 L 19.621094 6.835938 C 19.714844 7.359375 19.714844 7.878906 19.714844 8.445312 C 19.667969 8.585938 19.621094 8.726562 19.480469 8.824219 L 19.480469 8.917969 L 19.4375 9.292969 C 18.917969 9.339844 18.40625 9.433594 17.839844 9.527344 C 15.636719 10.003906 13.621094 11.183594 12.074219 12.839844 L 11.792969 12.652344 L 11.75 12.652344 C 11.703125 12.652344 11.65625 12.699219 11.5625 12.699219 C 11.46875 12.699219 11.375 12.652344 11.28125 12.605469 C 10.859375 12.273438 10.4375 11.894531 10.109375 11.519531 C 10.0625 11.421875 9.96875 11.375 9.921875 11.328125 C 9.78125 11.1875 9.6875 11.046875 9.550781 10.90625 C 9.503906 10.859375 9.457031 10.859375 9.410156 10.8125 C 9.363281 10.765625 9.363281 10.765625 9.363281 10.765625 C 9.175781 10.621094 8.941406 10.527344 8.707031 10.527344 C 8.425781 10.527344 8.1875 10.621094 8.046875 10.859375 C 7.765625 11.28125 7.859375 11.851562 8.234375 12.179688 C 8.28125 12.179688 8.28125 12.226562 8.28125 12.226562 C 8.28125 12.226562 8.375 12.320312 8.421875 12.320312 C 8.5625 12.417969 8.75 12.511719 8.9375 12.605469 C 9.03125 12.652344 9.125 12.699219 9.21875 12.746094 C 9.6875 13.027344 10.15625 13.316406 10.53125 13.691406 C 10.625 13.785156 10.71875 13.972656 10.671875 14.117188 L 10.671875 14.066406 L 10.949219 14.351562 C 10.902344 14.445312 10.855469 14.492188 10.808594 14.585938 C 9.355469 16.90625 8.75 19.648438 9.167969 22.339844 L 8.796875 22.4375 C 8.796875 22.484375 8.75 22.484375 8.75 22.484375 C 8.703125 22.625 8.5625 22.71875 8.421875 22.8125 C 7.90625 22.953125 7.390625 23.046875 6.828125 23.09375 C 6.734375 23.09375 6.640625 23.09375 6.546875 23.140625 C 6.359375 23.140625 6.171875 23.191406 5.984375 23.191406 C 5.9375 23.191406 5.890625 23.238281 5.796875 23.238281 C 5.75 23.238281 5.75 23.238281 5.703125 23.285156 C 5.183594 23.378906 4.859375 23.851562 4.953125 24.371094 C 5.042969 24.792969 5.46875 25.082031 5.890625 25.035156 C 5.984375 25.035156 6.027344 25.035156 6.121094 24.988281 C 6.167969 24.988281 6.167969 24.988281 6.167969 24.9375 C 6.167969 24.890625 6.308594 24.9375 6.355469 24.9375 C 6.542969 24.890625 6.730469 24.796875 6.875 24.75 C 6.964844 24.703125 7.058594 24.65625 7.152344 24.65625 L 7.199219 24.65625 C 7.71875 24.46875 8.183594 24.328125 8.75 24.234375 L 8.796875 24.234375 C 8.933594 24.234375 9.074219 24.28125 9.167969 24.375 C 9.214844 24.375 9.214844 24.421875 9.214844 24.421875 L 9.636719 24.375 C 10.339844 26.546875 11.652344 28.488281 13.480469 29.90625 C 13.898438 30.234375 14.277344 30.519531 14.746094 30.757812 L 14.511719 31.085938 C 14.511719 31.132812 14.558594 31.132812 14.558594 31.132812 C 14.652344 31.273438 14.652344 31.464844 14.605469 31.609375 C 14.417969 32.082031 14.132812 32.554688 13.851562 32.980469 L 13.851562 33.027344 C 13.808594 33.121094 13.761719 33.167969 13.667969 33.261719 C 13.574219 33.359375 13.480469 33.546875 13.339844 33.738281 C 13.292969 33.785156 13.292969 33.832031 13.246094 33.878906 C 13.246094 33.878906 13.246094 33.925781 13.199219 33.925781 C 12.964844 34.402344 13.152344 34.964844 13.574219 35.203125 C 13.667969 35.25 13.808594 35.296875 13.898438 35.296875 C 14.273438 35.296875 14.605469 35.058594 14.792969 34.726562 C 14.792969 34.726562 14.792969 34.679688 14.835938 34.679688 C 14.835938 34.632812 14.882812 34.585938 14.929688 34.539062 C 14.976562 34.351562 15.070312 34.207031 15.117188 34.015625 L 15.210938 33.734375 C 15.351562 33.214844 15.585938 32.742188 15.820312 32.265625 C 15.914062 32.125 16.054688 32.03125 16.195312 31.984375 C 16.242188 31.984375 16.242188 31.984375 16.242188 31.9375 L 16.429688 31.5625 C 17.742188 32.082031 19.101562 32.316406 20.507812 32.316406 C 21.351562 32.316406 22.195312 32.222656 23.039062 31.988281 C 23.554688 31.894531 24.070312 31.707031 24.539062 31.5625 L 24.726562 31.894531 C 24.773438 31.894531 24.773438 31.894531 24.773438 31.941406 C 24.914062 31.988281 25.054688 32.082031 25.148438 32.222656 C 25.382812 32.699219 25.617188 33.167969 25.757812 33.691406 L 25.757812 33.738281 L 25.851562 34.019531 C 25.898438 34.207031 25.945312 34.398438 26.039062 34.542969 C 26.085938 34.589844 26.085938 34.636719 26.132812 34.683594 C 26.132812 34.683594 26.132812 34.730469 26.179688 34.730469 C 26.367188 35.058594 26.695312 35.300781 27.070312 35.300781 C 27.210938 35.300781 27.304688 35.25 27.445312 35.203125 C 27.628906 35.109375 27.816406 34.921875 27.863281 34.683594 C 27.910156 34.449219 27.910156 34.207031 27.816406 33.972656 C 27.816406 33.925781 27.769531 33.925781 27.769531 33.925781 C 27.769531 33.878906 27.722656 33.832031 27.675781 33.785156 C 27.582031 33.597656 27.488281 33.457031 27.351562 33.308594 C 27.304688 33.214844 27.257812 33.167969 27.164062 33.074219 L 27.164062 32.980469 C 26.835938 32.558594 26.597656 32.082031 26.414062 31.609375 C 26.367188 31.464844 26.367188 31.277344 26.460938 31.132812 C 26.460938 31.085938 26.503906 31.085938 26.503906 31.085938 L 26.367188 30.710938 C 28.757812 29.242188 30.585938 26.976562 31.429688 24.28125 L 31.804688 24.328125 C 31.851562 24.328125 31.851562 24.28125 31.851562 24.28125 C 31.945312 24.1875 32.085938 24.136719 32.226562 24.136719 L 32.269531 24.136719 C 32.789062 24.234375 33.300781 24.375 33.773438 24.5625 L 33.820312 24.5625 C 33.914062 24.609375 34.007812 24.65625 34.101562 24.65625 C 34.285156 24.75 34.425781 24.84375 34.617188 24.890625 C 34.664062 24.890625 34.710938 24.9375 34.804688 24.9375 C 34.851562 24.9375 34.851562 24.9375 34.898438 24.988281 C 34.992188 25.035156 35.039062 25.035156 35.132812 25.035156 C 35.550781 25.035156 35.929688 24.75 36.070312 24.371094 C 36.027344 23.859375 35.652344 23.480469 35.230469 23.386719 Z M 21.679688 21.917969 L 20.417969 22.535156 L 19.152344 21.917969 L 18.824219 20.546875 L 19.714844 19.410156 L 21.125 19.410156 L 22.015625 20.546875 Z M 29.320312 18.847656 C 29.554688 19.839844 29.601562 20.832031 29.507812 21.824219 L 25.054688 20.546875 C 24.632812 20.453125 24.398438 20.027344 24.492188 19.601562 C 24.539062 19.460938 24.585938 19.367188 24.675781 19.273438 L 28.195312 16.058594 C 28.710938 16.90625 29.089844 17.851562 29.320312 18.847656 Z M 26.789062 14.308594 L 22.945312 17.050781 C 22.617188 17.238281 22.148438 17.191406 21.914062 16.859375 C 21.820312 16.765625 21.773438 16.671875 21.773438 16.53125 L 21.496094 11.757812 C 23.554688 11.992188 25.382812 12.890625 26.789062 14.308594 Z M 18.304688 11.894531 L 19.242188 11.707031 L 19.007812 16.433594 C 19.007812 16.859375 18.636719 17.191406 18.210938 17.191406 C 18.070312 17.191406 17.976562 17.144531 17.835938 17.097656 L 13.945312 14.308594 C 15.160156 13.125 16.664062 12.273438 18.304688 11.894531 Z M 12.585938 16.058594 L 16.054688 19.175781 C 16.382812 19.457031 16.429688 19.933594 16.148438 20.261719 C 16.054688 20.402344 15.960938 20.449219 15.777344 20.496094 L 11.226562 21.820312 C 11.085938 19.839844 11.550781 17.804688 12.585938 16.058594 Z M 11.789062 24.046875 L 16.429688 23.242188 C 16.804688 23.242188 17.179688 23.480469 17.226562 23.859375 C 17.273438 24 17.273438 24.1875 17.179688 24.332031 L 15.398438 28.683594 C 13.757812 27.59375 12.441406 25.9375 11.789062 24.046875 Z M 22.433594 29.910156 C 21.773438 30.050781 21.121094 30.144531 20.417969 30.144531 C 19.433594 30.144531 18.402344 29.957031 17.464844 29.671875 L 19.761719 25.460938 C 19.996094 25.179688 20.375 25.082031 20.699219 25.273438 C 20.839844 25.367188 20.933594 25.460938 21.074219 25.601562 L 23.324219 29.71875 C 23.039062 29.765625 22.757812 29.816406 22.433594 29.910156 Z M 28.152344 25.796875 C 27.445312 26.929688 26.460938 27.921875 25.339844 28.632812 L 23.507812 24.1875 C 23.417969 23.8125 23.601562 23.433594 23.929688 23.289062 C 24.070312 23.242188 24.210938 23.195312 24.351562 23.195312 L 29.039062 24 C 28.808594 24.660156 28.523438 25.277344 28.152344 25.796875 Z M 28.152344 25.796875 "/>
</g>
</svg>
