<?xml version="1.0" encoding="UTF-8"?>
<svg xmlns="http://www.w3.org/2000/svg" xmlns:xlink="http://www.w3.org/1999/xlink" width="40px" height="40px" viewBox="0 0 40 40" version="1.1">
<g id="surface1">
<path style=" stroke:none;fill-rule:nonzero;fill:rgb(19.607843%,42.745098%,90.196078%);fill-opacity:1;" d="M 36.5 8.90625 C 36.273438 8.148438 35.722656 7.535156 35.035156 7.15625 L 21.085938 0.253906 C 20.71875 0.0664062 20.308594 0.015625 19.941406 0.015625 C 19.574219 0.015625 19.160156 0.015625 18.800781 0.113281 L 4.847656 7.0625 C 4.160156 7.394531 3.660156 8.007812 3.472656 8.8125 L 0.046875 24.367188 C -0.0898438 25.171875 0.0898438 25.976562 0.546875 26.636719 L 10.203125 38.976562 C 10.75 39.546875 11.527344 39.921875 12.304688 39.96875 L 27.671875 39.96875 C 28.496094 40.0625 29.277344 39.6875 29.773438 38.976562 L 39.429688 26.636719 C 39.886719 25.976562 40.070312 25.171875 39.976562 24.367188 Z M 36.5 8.90625 "/>
<path style=" stroke:none;fill-rule:nonzero;fill:rgb(100%,100%,100%);fill-opacity:1;" d="M 34.371094 23.386719 C 34.324219 23.386719 34.28125 23.386719 34.28125 23.335938 C 34.28125 23.289062 34.1875 23.289062 34.097656 23.289062 C 33.917969 23.242188 33.734375 23.242188 33.546875 23.242188 C 33.457031 23.242188 33.363281 23.242188 33.273438 23.195312 L 33.226562 23.195312 C 32.726562 23.148438 32.175781 23.054688 31.671875 22.914062 C 31.535156 22.867188 31.398438 22.726562 31.351562 22.585938 C 31.398438 22.585938 31.351562 22.585938 31.351562 22.585938 L 30.992188 22.488281 C 31.171875 21.117188 31.082031 19.699219 30.808594 18.328125 C 30.488281 16.953125 29.9375 15.632812 29.207031 14.453125 L 29.476562 14.167969 L 29.476562 14.121094 C 29.476562 13.980469 29.523438 13.792969 29.613281 13.699219 C 30.027344 13.320312 30.4375 13.035156 30.894531 12.753906 C 30.988281 12.707031 31.078125 12.660156 31.171875 12.609375 C 31.347656 12.515625 31.484375 12.421875 31.671875 12.328125 C 31.71875 12.28125 31.765625 12.28125 31.808594 12.234375 C 31.855469 12.1875 31.808594 12.1875 31.808594 12.140625 C 32.222656 11.808594 32.3125 11.242188 31.992188 10.816406 C 31.855469 10.628906 31.582031 10.488281 31.347656 10.488281 C 31.125 10.488281 30.890625 10.582031 30.707031 10.722656 L 30.664062 10.769531 C 30.617188 10.816406 30.570312 10.863281 30.527344 10.863281 C 30.390625 11.007812 30.253906 11.148438 30.164062 11.289062 C 30.117188 11.382812 30.027344 11.429688 29.980469 11.476562 C 29.660156 11.855469 29.25 12.234375 28.835938 12.515625 C 28.746094 12.5625 28.65625 12.609375 28.5625 12.609375 C 28.515625 12.609375 28.425781 12.609375 28.378906 12.5625 L 28.339844 12.5625 L 27.972656 12.800781 C 27.605469 12.421875 27.195312 12.042969 26.828125 11.664062 C 25.136719 10.292969 23.035156 9.445312 20.878906 9.207031 L 20.839844 8.828125 L 20.839844 8.875 C 20.703125 8.78125 20.65625 8.640625 20.609375 8.5 C 20.609375 7.976562 20.609375 7.460938 20.703125 6.890625 L 20.703125 6.84375 C 20.703125 6.75 20.746094 6.65625 20.746094 6.5625 C 20.792969 6.375 20.792969 6.183594 20.839844 5.992188 L 20.839844 5.703125 C 20.878906 5.230469 20.519531 4.757812 20.058594 4.710938 C 19.785156 4.664062 19.507812 4.804688 19.28125 5.039062 C 19.097656 5.230469 19.003906 5.464844 19.003906 5.703125 L 19.003906 5.9375 C 19.003906 6.128906 19.050781 6.316406 19.097656 6.507812 C 19.140625 6.601562 19.140625 6.695312 19.140625 6.789062 L 19.140625 6.835938 C 19.234375 7.359375 19.234375 7.878906 19.234375 8.445312 C 19.1875 8.585938 19.140625 8.726562 19.003906 8.824219 L 19.003906 8.917969 L 18.964844 9.292969 C 18.457031 9.339844 17.957031 9.433594 17.40625 9.527344 C 15.253906 10.003906 13.289062 11.183594 11.78125 12.839844 L 11.503906 12.652344 L 11.464844 12.652344 C 11.417969 12.652344 11.371094 12.699219 11.28125 12.699219 C 11.1875 12.699219 11.097656 12.652344 11.007812 12.605469 C 10.59375 12.273438 10.183594 11.894531 9.863281 11.519531 C 9.816406 11.421875 9.726562 11.375 9.679688 11.328125 C 9.542969 11.1875 9.453125 11.046875 9.316406 10.90625 C 9.273438 10.859375 9.226562 10.859375 9.179688 10.8125 C 9.136719 10.765625 9.136719 10.765625 9.136719 10.765625 C 8.953125 10.621094 8.722656 10.527344 8.496094 10.527344 C 8.21875 10.527344 7.988281 10.621094 7.851562 10.859375 C 7.578125 11.28125 7.667969 11.851562 8.035156 12.179688 C 8.078125 12.179688 8.078125 12.226562 8.078125 12.226562 C 8.078125 12.226562 8.171875 12.320312 8.214844 12.320312 C 8.355469 12.417969 8.535156 12.511719 8.71875 12.605469 C 8.8125 12.652344 8.902344 12.699219 8.992188 12.746094 C 9.453125 13.027344 9.910156 13.316406 10.273438 13.691406 C 10.367188 13.785156 10.457031 13.972656 10.410156 14.117188 L 10.410156 14.066406 L 10.683594 14.351562 C 10.636719 14.445312 10.589844 14.492188 10.546875 14.585938 C 9.128906 16.90625 8.535156 19.648438 8.945312 22.339844 L 8.582031 22.4375 C 8.582031 22.484375 8.535156 22.484375 8.535156 22.484375 C 8.492188 22.625 8.355469 22.71875 8.214844 22.8125 C 7.714844 22.953125 7.210938 23.046875 6.660156 23.09375 C 6.570312 23.09375 6.480469 23.09375 6.386719 23.140625 C 6.203125 23.140625 6.019531 23.191406 5.839844 23.191406 C 5.792969 23.191406 5.746094 23.238281 5.65625 23.238281 C 5.609375 23.238281 5.609375 23.238281 5.5625 23.285156 C 5.058594 23.378906 4.742188 23.851562 4.832031 24.371094 C 4.921875 24.792969 5.335938 25.082031 5.746094 25.035156 C 5.839844 25.035156 5.878906 25.035156 5.972656 24.988281 C 6.015625 24.988281 6.015625 24.988281 6.015625 24.9375 C 6.015625 24.890625 6.15625 24.9375 6.199219 24.9375 C 6.382812 24.890625 6.566406 24.796875 6.707031 24.75 C 6.796875 24.703125 6.886719 24.65625 6.976562 24.65625 L 7.023438 24.65625 C 7.53125 24.46875 7.984375 24.328125 8.535156 24.234375 L 8.582031 24.234375 C 8.714844 24.234375 8.851562 24.28125 8.945312 24.375 C 8.988281 24.375 8.988281 24.421875 8.988281 24.421875 L 9.402344 24.375 C 10.085938 26.546875 11.367188 28.488281 13.152344 29.90625 C 13.558594 30.234375 13.929688 30.519531 14.386719 30.757812 L 14.15625 31.085938 C 14.15625 31.132812 14.203125 31.132812 14.203125 31.132812 C 14.296875 31.273438 14.296875 31.464844 14.25 31.609375 C 14.066406 32.082031 13.789062 32.554688 13.515625 32.980469 L 13.515625 33.027344 C 13.472656 33.121094 13.425781 33.167969 13.335938 33.261719 C 13.242188 33.359375 13.152344 33.546875 13.015625 33.738281 C 12.96875 33.785156 12.96875 33.832031 12.921875 33.878906 C 12.921875 33.878906 12.921875 33.925781 12.878906 33.925781 C 12.648438 34.402344 12.832031 34.964844 13.242188 35.203125 C 13.335938 35.25 13.472656 35.296875 13.558594 35.296875 C 13.925781 35.296875 14.25 35.058594 14.433594 34.726562 C 14.433594 34.726562 14.433594 34.679688 14.472656 34.679688 C 14.472656 34.632812 14.519531 34.585938 14.566406 34.539062 C 14.609375 34.351562 14.703125 34.207031 14.75 34.015625 L 14.839844 33.734375 C 14.976562 33.214844 15.207031 32.742188 15.433594 32.265625 C 15.527344 32.125 15.664062 32.03125 15.800781 31.984375 C 15.847656 31.984375 15.847656 31.984375 15.847656 31.9375 L 16.027344 31.5625 C 17.308594 32.082031 18.636719 32.316406 20.007812 32.316406 C 20.832031 32.316406 21.652344 32.222656 22.476562 31.988281 C 22.980469 31.894531 23.484375 31.707031 23.941406 31.5625 L 24.125 31.894531 C 24.167969 31.894531 24.167969 31.894531 24.167969 31.941406 C 24.304688 31.988281 24.445312 32.082031 24.535156 32.222656 C 24.765625 32.699219 24.992188 33.167969 25.128906 33.691406 L 25.128906 33.738281 L 25.222656 34.019531 C 25.265625 34.207031 25.3125 34.398438 25.402344 34.542969 C 25.449219 34.589844 25.449219 34.636719 25.496094 34.683594 C 25.496094 34.683594 25.496094 34.730469 25.542969 34.730469 C 25.722656 35.058594 26.042969 35.300781 26.410156 35.300781 C 26.546875 35.300781 26.640625 35.25 26.777344 35.203125 C 26.953125 35.109375 27.136719 34.921875 27.183594 34.683594 C 27.230469 34.449219 27.230469 34.207031 27.136719 33.972656 C 27.136719 33.925781 27.09375 33.925781 27.09375 33.925781 C 27.09375 33.878906 27.046875 33.832031 27 33.785156 C 26.910156 33.597656 26.816406 33.457031 26.683594 33.308594 C 26.640625 33.214844 26.59375 33.167969 26.5 33.074219 L 26.5 32.980469 C 26.179688 32.558594 25.949219 32.082031 25.769531 31.609375 C 25.722656 31.464844 25.722656 31.277344 25.816406 31.132812 C 25.816406 31.085938 25.859375 31.085938 25.859375 31.085938 L 25.722656 30.710938 C 28.054688 29.242188 29.839844 26.976562 30.664062 24.28125 L 31.027344 24.328125 C 31.074219 24.328125 31.074219 24.28125 31.074219 24.28125 C 31.167969 24.1875 31.304688 24.136719 31.441406 24.136719 L 31.484375 24.136719 C 31.988281 24.234375 32.488281 24.375 32.949219 24.5625 L 32.996094 24.5625 C 33.085938 24.609375 33.179688 24.65625 33.269531 24.65625 C 33.449219 24.75 33.585938 24.84375 33.773438 24.890625 C 33.820312 24.890625 33.863281 24.9375 33.957031 24.9375 C 34 24.9375 34 24.9375 34.046875 24.988281 C 34.140625 25.035156 34.183594 25.035156 34.277344 25.035156 C 34.683594 25.035156 35.054688 24.75 35.191406 24.371094 C 35.148438 23.859375 34.78125 23.480469 34.371094 23.386719 Z M 21.152344 21.917969 L 19.921875 22.535156 L 18.683594 21.917969 L 18.363281 20.546875 L 19.234375 19.410156 L 20.609375 19.410156 L 21.480469 20.546875 Z M 28.605469 18.847656 C 28.832031 19.839844 28.878906 20.832031 28.789062 21.824219 L 24.445312 20.546875 C 24.03125 20.453125 23.804688 20.027344 23.894531 19.601562 C 23.941406 19.460938 23.984375 19.367188 24.074219 19.273438 L 27.507812 16.058594 C 28.011719 16.90625 28.378906 17.851562 28.605469 18.847656 Z M 26.136719 14.308594 L 22.386719 17.050781 C 22.066406 17.238281 21.609375 17.191406 21.378906 16.859375 C 21.289062 16.765625 21.242188 16.671875 21.242188 16.53125 L 20.972656 11.757812 C 22.980469 11.992188 24.765625 12.890625 26.136719 14.308594 Z M 17.859375 11.894531 L 18.773438 11.707031 L 18.542969 16.433594 C 18.542969 16.859375 18.183594 17.191406 17.765625 17.191406 C 17.628906 17.191406 17.539062 17.144531 17.402344 17.097656 L 13.605469 14.308594 C 14.789062 13.125 16.257812 12.273438 17.859375 11.894531 Z M 12.277344 16.058594 L 15.664062 19.175781 C 15.984375 19.457031 16.027344 19.933594 15.753906 20.261719 C 15.664062 20.402344 15.570312 20.449219 15.390625 20.496094 L 10.953125 21.820312 C 10.816406 19.839844 11.269531 17.804688 12.277344 16.058594 Z M 11.5 24.046875 L 16.027344 23.242188 C 16.394531 23.242188 16.761719 23.480469 16.804688 23.859375 C 16.851562 24 16.851562 24.1875 16.761719 24.332031 L 15.023438 28.683594 C 13.421875 27.59375 12.136719 25.9375 11.5 24.046875 Z M 21.886719 29.910156 C 21.242188 30.050781 20.605469 30.144531 19.921875 30.144531 C 18.960938 30.144531 17.953125 29.957031 17.039062 29.671875 L 19.28125 25.460938 C 19.507812 25.179688 19.878906 25.082031 20.195312 25.273438 C 20.332031 25.367188 20.421875 25.460938 20.558594 25.601562 L 22.753906 29.71875 C 22.476562 29.765625 22.203125 29.816406 21.886719 29.910156 Z M 27.464844 25.796875 C 26.777344 26.929688 25.816406 27.921875 24.722656 28.632812 L 22.933594 24.1875 C 22.847656 23.8125 23.027344 23.433594 23.347656 23.289062 C 23.484375 23.242188 23.621094 23.195312 23.757812 23.195312 L 28.332031 24 C 28.105469 24.660156 27.828125 25.277344 27.464844 25.796875 Z M 27.464844 25.796875 "/>
</g>
</svg>
